<svg width="24" height="24" viewBox="0 0 24 24" fill="none" xmlns="http://www.w3.org/2000/svg">
<path d="M12.186 24H12.179C8.59798 23.976 5.84498 22.795 3.99498 20.491C2.34998 18.44 1.49998 15.586 1.47198 12.01V11.993C1.50198 8.414 2.35098 5.563 3.99698 3.511C5.84499 1.205 8.59999 0.024 12.18 0H12.194C14.94 0.02 17.237 0.725 19.02 2.098C20.697 3.388 21.878 5.228 22.529 7.565L20.489 8.134C19.385 4.174 16.591 2.15 12.185 2.119C9.27499 2.141 7.07498 3.055 5.64498 4.836C4.30698 6.504 3.61598 8.914 3.58898 12C3.61598 15.086 4.30698 17.496 5.64598 19.164C7.07598 20.947 9.27698 21.862 12.186 21.881C14.809 21.861 16.544 21.25 17.986 19.836C19.633 18.223 19.604 16.243 19.076 15.038C18.766 14.328 18.203 13.738 17.442 13.288C17.25 14.64 16.82 15.734 16.158 16.56C15.272 17.662 14.018 18.264 12.428 18.35C11.226 18.415 10.067 18.132 9.16898 17.549C8.10598 16.86 7.48398 15.809 7.41698 14.585C7.35198 13.395 7.82498 12.3 8.74698 11.503C9.62698 10.743 10.866 10.296 12.33 10.212C13.3388 10.1502 14.3514 10.1978 15.35 10.354C15.224 9.612 14.975 9.022 14.6 8.597C14.087 8.011 13.292 7.714 12.241 7.707H12.212C11.368 7.707 10.22 7.939 9.49098 9.027L7.73398 7.847C8.71398 6.393 10.302 5.591 12.212 5.591H12.256C15.45 5.611 17.353 7.566 17.543 10.979C17.6517 11.0257 17.7587 11.073 17.864 11.121C19.354 11.821 20.444 12.882 21.018 14.191C21.815 16.011 21.889 18.981 19.47 21.349C17.62 23.159 15.376 23.977 12.193 23.999L12.186 24ZM13.189 12.31C12.9477 12.31 12.7013 12.317 12.45 12.331C10.614 12.434 9.46999 13.277 9.53399 14.474C9.60099 15.73 10.986 16.313 12.318 16.241C13.542 16.176 15.136 15.698 15.404 12.531C14.6756 12.3791 13.9331 12.305 13.189 12.31Z" fill="#FF9C9C"/>
</svg>
